<svg width="3568" height="3486" xmlns="http://www.w3.org/2000/svg" xmlns:xlink="http://www.w3.org/1999/xlink" xml:space="preserve" overflow="hidden"><g transform="translate(134 93)"><g><g><g><path d="M1085 1986.39C587.57 1986.39 183.615 1582.43 183.615 1085 183.615 1048.28 213.662 1018.23 250.385 1018.23L751.155 1018.23C787.877 1018.23 817.923 1048.28 817.923 1085 817.923 1231.89 938.108 1352.08 1085 1352.08 1231.89 1352.08 1352.08 1231.89 1352.08 1085 1352.08 1048.28 1382.12 1018.23 1418.85 1018.23L1919.62 1018.23C1956.34 1018.23 1986.39 1048.28 1986.39 1085 1986.39 1582.43 1582.43 1986.39 1085 1986.39ZM320.492 1151.77C353.877 1544.04 684.385 1852.85 1085 1852.85 1485.62 1852.85 1816.12 1544.04 1849.51 1151.77L1480.61 1151.77C1448.89 1340.39 1283.64 1485.62 1085 1485.62 886.362 1485.62 721.107 1340.39 689.392 1151.77L320.492 1151.77Z" fill="#7F7F7F" transform="matrix(1 0 0 1.00046 -134 -93.0002)"/><path d="M1085 250.385C624.292 250.385 250.385 624.292 250.385 1085L751.155 1085C751.155 901.385 901.385 751.155 1085 751.155 1268.61 751.155 1418.85 901.385 1418.85 1085L1919.62 1085C1919.62 624.292 1545.71 250.385 1085 250.385Z" fill="#BFBFBF" transform="matrix(1 0 0 1.00046 -134 -93.0002)"/><path d="M1919.62 1151.77 1418.85 1151.77C1382.12 1151.77 1352.08 1121.72 1352.08 1085 1352.08 938.108 1231.89 817.923 1085 817.923 938.108 817.923 817.923 938.108 817.923 1085 817.923 1121.72 787.877 1151.77 751.155 1151.77L250.385 1151.77C213.662 1151.77 183.615 1121.72 183.615 1085 183.615 587.57 587.57 183.615 1085 183.615 1582.43 183.615 1986.39 587.57 1986.39 1085 1986.39 1121.72 1956.34 1151.77 1919.62 1151.77ZM1480.61 1018.23 1851.18 1018.23C1816.12 625.962 1485.62 317.155 1085 317.155 684.385 317.155 353.877 625.962 320.492 1018.23L691.062 1018.23C721.107 829.608 886.362 684.385 1085 684.385 1283.64 684.385 1448.89 829.608 1480.61 1018.23Z" fill="#7F7F7F" transform="matrix(1 0 0 1.00046 -134 -93.0002)"/><path d="M1085 1485.62C864.662 1485.62 684.385 1305.34 684.385 1085 684.385 864.662 864.662 684.385 1085 684.385 1305.34 684.385 1485.62 864.662 1485.62 1085 1485.62 1305.34 1305.34 1485.62 1085 1485.62ZM1085 817.923C938.108 817.923 817.923 938.108 817.923 1085 817.923 1231.89 938.108 1352.08 1085 1352.08 1231.89 1352.08 1352.08 1231.89 1352.08 1085 1352.08 938.108 1231.89 817.923 1085 817.923Z" fill="#7F7F7F" transform="matrix(1 0 0 1.00046 -134 -93.0002)"/><path d="M918.077 1085C918.077 1177.19 992.811 1251.92 1085 1251.92 1177.19 1251.92 1251.92 1177.19 1251.92 1085 1251.92 992.811 1177.19 918.077 1085 918.077 992.811 918.077 918.077 992.811 918.077 1085Z" fill="#BFBFBF" transform="matrix(1 0 0 1.00046 -134 -93.0002)"/></g></g></g><g><g><g><path d="M1085 1986.39C587.57 1986.39 183.615 1582.43 183.615 1085 183.615 1048.28 213.662 1018.23 250.385 1018.23L751.155 1018.23C787.877 1018.23 817.923 1048.28 817.923 1085 817.923 1231.89 938.108 1352.08 1085 1352.08 1231.89 1352.08 1352.08 1231.89 1352.08 1085 1352.08 1048.28 1382.12 1018.23 1418.85 1018.23L1919.62 1018.23C1956.34 1018.23 1986.39 1048.28 1986.39 1085 1986.39 1582.43 1582.43 1986.39 1085 1986.39ZM320.492 1151.77C353.877 1544.04 684.385 1852.85 1085 1852.85 1485.62 1852.85 1816.12 1544.04 1849.51 1151.77L1480.61 1151.77C1448.89 1340.39 1283.64 1485.62 1085 1485.62 886.362 1485.62 721.107 1340.39 689.392 1151.77L320.492 1151.77Z" fill="#7F7F7F" transform="matrix(1 0 0 1.00046 1264 -93.0002)"/><path d="M1085 250.385C624.292 250.385 250.385 624.292 250.385 1085L751.155 1085C751.155 901.385 901.385 751.155 1085 751.155 1268.61 751.155 1418.85 901.385 1418.85 1085L1919.62 1085C1919.62 624.292 1545.71 250.385 1085 250.385Z" fill="#BFBFBF" transform="matrix(1 0 0 1.00046 1264 -93.0002)"/><path d="M1919.62 1151.77 1418.85 1151.77C1382.12 1151.77 1352.08 1121.72 1352.08 1085 1352.08 938.108 1231.89 817.923 1085 817.923 938.108 817.923 817.923 938.108 817.923 1085 817.923 1121.72 787.877 1151.77 751.155 1151.77L250.385 1151.77C213.662 1151.77 183.615 1121.72 183.615 1085 183.615 587.57 587.57 183.615 1085 183.615 1582.43 183.615 1986.39 587.57 1986.39 1085 1986.39 1121.72 1956.34 1151.77 1919.62 1151.77ZM1480.61 1018.23 1851.18 1018.23C1816.12 625.962 1485.62 317.155 1085 317.155 684.385 317.155 353.877 625.962 320.492 1018.23L691.062 1018.23C721.107 829.608 886.362 684.385 1085 684.385 1283.64 684.385 1448.89 829.608 1480.61 1018.23Z" fill="#7F7F7F" transform="matrix(1 0 0 1.00046 1264 -93.0002)"/><path d="M1085 1485.62C864.662 1485.62 684.385 1305.34 684.385 1085 684.385 864.662 864.662 684.385 1085 684.385 1305.34 684.385 1485.62 864.662 1485.62 1085 1485.62 1305.34 1305.34 1485.62 1085 1485.62ZM1085 817.923C938.108 817.923 817.923 938.108 817.923 1085 817.923 1231.89 938.108 1352.08 1085 1352.08 1231.89 1352.08 1352.08 1231.89 1352.08 1085 1352.08 938.108 1231.89 817.923 1085 817.923Z" fill="#7F7F7F" transform="matrix(1 0 0 1.00046 1264 -93.0002)"/><path d="M918.077 1085C918.077 1177.19 992.811 1251.92 1085 1251.92 1177.19 1251.92 1251.92 1177.19 1251.92 1085 1251.92 992.811 1177.19 918.077 1085 918.077 992.811 918.077 918.077 992.811 918.077 1085Z" fill="#BFBFBF" transform="matrix(1 0 0 1.00046 1264 -93.0002)"/></g></g></g><g><g><g><path d="M1315 2407.46C712.124 2407.46 222.539 1917.88 222.539 1315 222.539 1270.49 258.955 1234.08 303.462 1234.08L910.386 1234.08C954.893 1234.08 991.307 1270.49 991.307 1315 991.307 1493.03 1136.97 1638.69 1315 1638.69 1493.03 1638.69 1638.69 1493.03 1638.69 1315 1638.69 1270.49 1675.11 1234.08 1719.61 1234.08L2326.54 1234.08C2371.04 1234.08 2407.46 1270.49 2407.46 1315 2407.46 1917.88 1917.88 2407.46 1315 2407.46ZM388.431 1395.92C428.893 1871.34 829.462 2245.61 1315 2245.61 1800.54 2245.61 2201.11 1871.34 2241.57 1395.92L1794.47 1395.92C1756.03 1624.53 1555.74 1800.54 1315 1800.54 1074.25 1800.54 873.969 1624.53 835.531 1395.92L388.431 1395.92Z" fill="#7F7F7F" transform="matrix(1 0 0 1.00038 335 762)"/><path d="M1315 303.462C756.631 303.462 303.462 756.631 303.462 1315L910.386 1315C910.386 1092.46 1092.46 910.386 1315 910.386 1537.54 910.386 1719.61 1092.46 1719.61 1315L2326.54 1315C2326.54 756.631 1873.37 303.462 1315 303.462Z" fill="#BFBFBF" transform="matrix(1 0 0 1.00038 335 762)"/><path d="M2326.54 1395.92 1719.61 1395.92C1675.11 1395.92 1638.69 1359.51 1638.69 1315 1638.69 1136.97 1493.03 991.307 1315 991.307 1136.97 991.307 991.307 1136.97 991.307 1315 991.307 1359.51 954.893 1395.92 910.386 1395.92L303.462 1395.92C258.955 1395.92 222.539 1359.51 222.539 1315 222.539 712.124 712.124 222.539 1315 222.539 1917.88 222.539 2407.46 712.124 2407.46 1315 2407.46 1359.51 2371.04 1395.92 2326.54 1395.92ZM1794.47 1234.08 2243.59 1234.08C2201.11 758.655 1800.54 384.386 1315 384.386 829.462 384.386 428.893 758.655 388.431 1234.08L837.555 1234.08C873.969 1005.47 1074.25 829.462 1315 829.462 1555.74 829.462 1756.03 1005.47 1794.47 1234.08Z" fill="#7F7F7F" transform="matrix(1 0 0 1.00038 335 762)"/><path d="M1315 1800.54C1047.95 1800.54 829.462 1582.04 829.462 1315 829.462 1047.95 1047.95 829.462 1315 829.462 1582.04 829.462 1800.54 1047.95 1800.54 1315 1800.54 1582.04 1582.04 1800.54 1315 1800.54ZM1315 991.307C1136.97 991.307 991.307 1136.97 991.307 1315 991.307 1493.03 1136.97 1638.69 1315 1638.69 1493.03 1638.69 1638.69 1493.03 1638.69 1315 1638.69 1136.97 1493.03 991.307 1315 991.307Z" fill="#7F7F7F" transform="matrix(1 0 0 1.00038 335 762)"/><path d="M1112.69 1315C1112.69 1426.73 1203.27 1517.31 1315 1517.31 1426.73 1517.31 1517.31 1426.73 1517.31 1315 1517.31 1203.27 1426.73 1112.69 1315 1112.69 1203.27 1112.69 1112.69 1203.27 1112.69 1315Z" fill="#BFBFBF" transform="matrix(1 0 0 1.00038 335 762)"/></g></g></g></g></svg>